HIERARCHY
ROOT Pelvis
{
	OFFSET 0.000000 0.000000 0.000000
	CHANNELS 6 Xposition Yposition Zposition Xrotation Yrotation Zrotation
	JOINT LeftUpLeg_virtual
	{
		OFFSET 0.000000 0.000000 0.000000
		CHANNELS 3 Xrotation Yrotation Zrotation
		JOINT LeftUpLeg
		{
			OFFSET 18.735201 -5.666702 -4.541200
			CHANNELS 3 Xrotation Yrotation Zrotation
			JOINT LeftLeg
			{
				OFFSET -0.021200 -31.938179 0.493100
				CHANNELS 3 Xrotation Yrotation Zrotation
				JOINT LeftFoot
				{
					OFFSET 0.021200 -31.938179 -4.336299
					CHANNELS 3 Xrotation Yrotation Zrotation
					JOINT LeftToeBase
					{
						OFFSET 0.943001 -26.722000 15.023500
						CHANNELS 3 Xrotation Yrotation Zrotation
						End Site
						{
							OFFSET 0 0 0
						}
					}
				}
			}
		}
	}
	JOINT RightUpLeg_virtual
	{
		OFFSET 0.000000 0.000000 0.000000
		CHANNELS 3 Xrotation Yrotation Zrotation
		JOINT RightUpLeg
		{
			OFFSET -18.735201 -5.666702 -4.541200
			CHANNELS 3 Xrotation Yrotation Zrotation
			JOINT RightLeg
			{
				OFFSET 0.018946 -31.938133 0.493100
				CHANNELS 3 Xrotation Yrotation Zrotation
				JOINT RightFoot
				{
					OFFSET -0.018946 -31.938126 -4.336299
					CHANNELS 3 Xrotation Yrotation Zrotation
					JOINT RightToeBase
					{
						OFFSET -0.943001 -26.722004 15.023500
						CHANNELS 3 Xrotation Yrotation Zrotation
						End Site
						{
							OFFSET 0 0 0
						}
					}
				}
			}
		}
	}
	JOINT Hips_virtual
	{
		OFFSET 0.000000 0.000000 0.000000
		CHANNELS 3 Xrotation Yrotation Zrotation
		JOINT Hips
		{
			OFFSET -0.000000 -0.000000 -0.000000
			CHANNELS 3 Xrotation Yrotation Zrotation
			JOINT Spine
			{
				OFFSET 0.000000 10.199997 -0.299500
				CHANNELS 3 Xrotation Yrotation Zrotation
				JOINT Spine1
				{
					OFFSET 0.000000 11.900002 -1.516600
					CHANNELS 3 Xrotation Yrotation Zrotation
					JOINT Spine2
					{
						OFFSET 0.000000 13.600006 -2.842500
						CHANNELS 3 Xrotation Yrotation Zrotation
						JOINT Neck_virtual
						{
							OFFSET 0.000000 0.000000 0.000000
							CHANNELS 3 Xrotation Yrotation Zrotation
							JOINT Neck
							{
								OFFSET 0.000000 9.624100 -2.890100
								CHANNELS 3 Xrotation Yrotation Zrotation
								JOINT Head
								{
									OFFSET 0.000000 14.068802 -1.351900
									CHANNELS 3 Xrotation Yrotation Zrotation
									End Site
									{
										OFFSET 0 0 0
									}
								}
							}
						}
						JOINT LeftShoulder_virtual
						{
							OFFSET 0.000000 0.000000 0.000000
							CHANNELS 3 Xrotation Yrotation Zrotation
							JOINT LeftShoulder
							{
								OFFSET 15.263000 10.923401 -0.547700
								CHANNELS 3 Xrotation Yrotation Zrotation
								JOINT LeftArm
								{
									OFFSET 25.438599 -2.830597 -13.032500
									CHANNELS 3 Xrotation Yrotation Zrotation
									JOINT LeftForeArm
									{
										OFFSET 29.960503 0.000000 0.000000
										CHANNELS 3 Xrotation Yrotation Zrotation
										JOINT LeftHand
										{
											OFFSET 27.849251 0.000000 0.000000
											CHANNELS 3 Xrotation Yrotation Zrotation
											End Site
											{
												OFFSET 0 0 0
											}
										}
									}
								}
							}
						}
						JOINT RightShoulder_virtual
						{
							OFFSET 0.000000 0.000000 0.000000
							CHANNELS 3 Xrotation Yrotation Zrotation
							JOINT RightShoulder
							{
								OFFSET -15.263000 10.923401 -0.547700
								CHANNELS 3 Xrotation Yrotation Zrotation
								JOINT RightArm
								{
									OFFSET -25.438599 -2.830597 -13.032500
									CHANNELS 3 Xrotation Yrotation Zrotation
									JOINT RightForeArm
									{
										OFFSET -29.960503 0.000000 0.000000
										CHANNELS 3 Xrotation Yrotation Zrotation
										JOINT RightHand
										{
											OFFSET -27.849251 0.000000 0.000000
											CHANNELS 3 Xrotation Yrotation Zrotation
											End Site
											{
												OFFSET 0 0 0
											}
										}
									}
								}
							}
						}
					}
				}
			}
		}
	}
}
MOTION
Frames: 4
Frame Time: 0.03333333
-7.155721 82.592216 1.626770 0.000000 0.000000 0.000000 3.861307 -46.108408 6.192587 -41.346639 -3.473189 19.262856 43.325543 -5.954801 -4.769884 -8.528616 -3.384682 -16.413433 0.000000 0.000000 0.000000 5.379589 -50.029319 -1.026281 -28.325336 -17.783866 -23.339349 42.670497 7.280694 0.381180 -12.558383 2.671646 17.241564 0.000000 0.000000 0.000000 -1.569987 -26.630083 0.418258 -1.609614 -24.880743 -0.975668 12.280538 -1.419006 -4.227271 6.416785 -0.122000 -3.285835 0.000000 0.000000 0.000000 3.163852 3.009039 -1.462295 -0.292087 3.155392 -0.456445 0.000000 0.000000 0.000000 1.167215 -1.568746 -2.790149 -3.757832 -8.103254 -12.288982 -5.580219 -4.257848 -35.635795 3.616549 -30.535303 1.452190 0.000000 0.000000 0.000000 2.605811 -0.480254 -1.934573 -0.460240 4.753150 -5.081018 -31.483255 10.322097 39.114776 -40.344230 81.274511 35.964730 0.000000 0.000000 0.000000 
-5.725898 83.079109 2.878197 0.000000 0.000000 0.000000 4.792075 -46.160300 6.925369 -40.087377 -3.605917 19.495395 42.677098 -6.526541 -5.281843 -8.767970 -3.685494 -17.695236 0.000000 0.000000 0.000000 6.239923 -49.524732 -0.388852 -27.373011 -17.922563 -22.843148 43.411818 7.922402 0.306168 -12.095112 3.373699 17.559435 0.000000 0.000000 0.000000 -3.598517 -27.603474 -0.718636 -0.214696 -23.356491 0.233399 11.081942 -2.071028 -4.570429 5.864676 -0.188729 -3.140602 0.000000 0.000000 0.000000 3.872965 2.361812 -1.811782 0.058777 3.244589 -0.397589 0.000000 0.000000 0.000000 0.107379 -2.066044 -3.068433 -4.090749 -7.769904 -12.323780 -1.626880 -5.297610 -36.171418 6.290927 -29.327060 1.647375 0.000000 0.000000 0.000000 1.846200 -0.867009 -1.881083 -0.790829 2.756308 -4.879513 -26.223538 8.665060 35.783125 -51.284677 82.818591 47.817403 0.000000 0.000000 0.000000 
-5.632053 82.708832 3.409029 0.000000 0.000000 0.000000 4.751573 -45.317386 7.153839 -39.894097 -3.548618 19.758492 43.697891 -6.514395 -5.255519 -7.827156 -3.723153 -17.842742 0.000000 0.000000 0.000000 7.926345 -47.898716 0.618687 -25.431526 -17.879309 -22.083904 43.670280 8.524325 -0.295509 -12.105965 4.276205 17.031299 0.000000 0.000000 0.000000 -1.491372 -28.846758 0.900494 -6.421290 -24.115556 -4.652626 10.497319 -2.805774 -3.893797 4.631217 -0.505418 -2.250481 0.000000 0.000000 0.000000 5.591258 1.770246 -1.241435 0.487882 3.244719 -0.242684 0.000000 0.000000 0.000000 -0.338607 -1.993926 -3.150521 -5.364367 -8.549630 -13.454481 4.725554 -6.901648 -35.836678 9.350956 -26.327869 1.733698 0.000000 0.000000 0.000000 1.356668 -1.064572 -1.457801 -1.348153 1.040461 -4.206890 -19.701074 9.896987 35.900991 -60.785521 84.166249 57.836498 0.000000 0.000000 0.000000 
-7.307329 82.468605 3.347343 0.000000 0.000000 0.000000 3.388682 -43.105122 6.018682 -40.589424 -2.971820 19.303108 44.288483 -6.578681 -5.032006 -7.179989 -3.968427 -17.702882 0.000000 0.000000 0.000000 9.014470 -46.293875 0.124749 -23.529805 -17.582046 -22.537077 43.844180 8.591861 -0.267387 -11.881224 4.389590 17.080565 0.000000 0.000000 0.000000 -3.640824 -28.560334 -0.493201 -5.032425 -25.284841 -6.438763 7.886184 -3.311747 -2.891322 4.225345 -0.515032 -2.214417 0.000000 0.000000 0.000000 5.942360 1.094139 -0.658216 0.800444 2.971065 0.088200 0.000000 0.000000 0.000000 -1.104030 -2.254002 -3.545174 -6.928616 -7.788312 -13.553418 6.690144 -8.566001 -34.462700 10.529871 -27.119830 1.981134 0.000000 0.000000 0.000000 0.721742 -1.160079 -1.058660 -2.826933 -0.544850 -2.148209 -18.300319 6.212223 33.617211 -54.521346 83.455991 51.871817 0.000000 0.000000 0.000000 
